<?xml version="1.0" standalone="no"?>
 <!DOCTYPE svg PUBLIC "-//W3C//DTD SVG 1.1//EN" 
 "http://www.w3.org/Graphics/SVG/1.1/DTD/svg11.dtd"> 
<svg
  xmlns:svg="http://www.w3.org/2000/svg"
  xmlns="http://www.w3.org/2000/svg"
  xmlns:xlink="http://www.w3.org/1999/xlink"
  version="1.1"
  width="297.00220mm" height="210.00720mm" viewBox="0.00000 0.00000 297.00220 210.00720">
<title>SVG Image created as power_supply_17VDC_low_noise-B_Cu.svg date 2026/02/23 13:39:15 </title>
  <desc>Image generated by PCBNEW </desc>
<g style="fill:#000000; fill-opacity:1.00000;stroke:#000000; stroke-opacity:1.00000;
stroke-linecap:round; stroke-linejoin:round;"
 transform="translate(0 0) scale(1 1)">
<path style="fill:#000000; fill-opacity:1.00000; stroke:none;fill-rule:evenodd;"
d="M 118.56011,52.69000
118.65578,52.70903
118.73689,52.76322
118.79108,52.84433
118.81011,52.94000
118.81011,54.64000
118.79108,54.73567
118.73689,54.81678
118.65578,54.87097
118.56011,54.89000
116.86011,54.89000
116.76444,54.87097
116.68333,54.81678
116.62914,54.73567
116.61011,54.64000
116.61011,52.94000
116.62914,52.84433
116.68333,52.76322
116.76444,52.70903
116.86011,52.69000
Z" /> 
</g>
<g style="fill:#000000; fill-opacity:1.00000; stroke:none;">
<circle cx="117.71011" cy="63.95000" r="1.10000" /> 
<path style="fill:#000000; fill-opacity:1.00000; stroke:none;fill-rule:evenodd;"
d="M 136.32989,125.01250
134.32989,125.01250
134.32989,123.10750
136.32989,123.10750
Z" /> 
</g>
<g style="fill:none; 
stroke:#000000; stroke-width:1.90500; stroke-opacity:1; 
stroke-linecap:round; stroke-linejoin:round;">
<path d="M135.28239 121.52000
L135.37739 121.52000
" />
<path d="M135.28239 118.98000
L135.37739 118.98000
" />
</g>
<g style="fill:#000000; fill-opacity:1.00000; stroke:none;">
<circle cx="158.45000" cy="126.00000" r="0.80000" /> 
</g>
<g style="fill:#000000; fill-opacity:1.00000; stroke:none;">
<circle cx="171.15000" cy="126.00000" r="0.80000" /> 
<path style="fill:#000000; fill-opacity:1.00000; stroke:none;fill-rule:evenodd;"
d="M 162.95000,114.62500
164.75000,114.62500
164.75000,116.42500
162.95000,116.42500
Z" /> 
</g>
<g style="fill:#000000; fill-opacity:1.00000; stroke:none;">
<circle cx="163.85000" cy="118.06500" r="0.90000" /> 
<path style="fill:#000000; fill-opacity:1.00000; stroke:none;fill-rule:evenodd;"
d="M 159.15000,111.20000
159.24567,111.21903
159.32678,111.27322
159.38097,111.35433
159.40000,111.45000
159.40000,113.15000
159.38097,113.24567
159.32678,113.32678
159.24567,113.38097
159.15000,113.40000
157.45000,113.40000
157.35433,113.38097
157.27322,113.32678
157.21903,113.24567
157.20000,113.15000
157.20000,111.45000
157.21903,111.35433
157.27322,111.27322
157.35433,111.21903
157.45000,111.20000
Z" /> 
</g>
<g style="fill:#000000; fill-opacity:1.00000; stroke:none;">
<circle cx="158.30000" cy="122.46000" r="1.10000" /> 
<path style="fill:#000000; fill-opacity:1.00000; stroke:none;fill-rule:evenodd;"
d="M 165.75000,106.27500
163.95000,106.27500
163.95000,104.47500
165.75000,104.47500
Z" /> 
</g>
<g style="fill:#000000; fill-opacity:1.00000; stroke:none;">
<circle cx="164.85000" cy="102.83500" r="0.90000" /> 
</g>
<g style="fill:#000000; fill-opacity:1.00000; stroke:none;">
<circle cx="164.80000" cy="98.95000" r="0.80000" /> 
</g>
<g style="fill:#000000; fill-opacity:1.00000; stroke:none;">
<circle cx="164.80000" cy="86.25000" r="0.80000" /> 
<path style="fill:#000000; fill-opacity:1.00000; stroke:none;fill-rule:evenodd;"
d="M 114.32989,111.27000
114.32989,109.27000
116.32989,109.27000
116.32989,111.27000
Z" /> 
</g>
<g style="fill:#000000; fill-opacity:1.00000; stroke:none;">
<circle cx="115.32989" cy="115.27000" r="1.00000" /> 
<circle cx="120.32989" cy="115.27000" r="1.00000" /> 
<circle cx="120.32989" cy="110.27000" r="1.00000" /> 
<path style="fill:#000000; fill-opacity:1.00000; stroke:none;fill-rule:evenodd;"
d="M 107.85000,92.30000
107.86903,92.20433
107.92322,92.12322
108.00433,92.06903
108.10000,92.05000
110.00000,92.05000
110.09567,92.06903
110.17678,92.12322
110.23097,92.20433
110.25000,92.30000
110.25000,94.20000
110.23097,94.29567
110.17678,94.37678
110.09567,94.43097
110.00000,94.45000
108.10000,94.45000
108.00433,94.43097
107.92322,94.37678
107.86903,94.29567
107.85000,94.20000
Z" /> 
<circle cx="116.55000" cy="93.25000" r="1.20000" /> 
</g>
<g style="fill:#000000; fill-opacity:1.00000; stroke:none;">
<circle cx="154.30000" cy="102.10000" r="0.80000" /> 
</g>
<g style="fill:#000000; fill-opacity:1.00000; stroke:none;">
<circle cx="141.60000" cy="102.10000" r="0.80000" /> 
</g>
<g style="fill:#000000; fill-opacity:1.00000; stroke:none;">
<circle cx="125.60000" cy="97.10000" r="0.80000" /> 
</g>
<g style="fill:#000000; fill-opacity:1.00000; stroke:none;">
<circle cx="125.60000" cy="102.10000" r="0.80000" /> 
<path style="fill:#000000; fill-opacity:1.00000; stroke:none;fill-rule:evenodd;"
d="M 137.11011,65.37000
137.01444,65.35097
136.93333,65.29678
136.87914,65.21567
136.86011,65.12000
136.86011,64.02000
136.87914,63.92433
136.93333,63.84322
137.01444,63.78903
137.11011,63.77000
138.21011,63.77000
138.30578,63.78903
138.38689,63.84322
138.44108,63.92433
138.46011,64.02000
138.46011,65.12000
138.44108,65.21567
138.38689,65.29678
138.30578,65.35097
138.21011,65.37000
Z" /> 
</g>
<g style="fill:#000000; fill-opacity:1.00000; stroke:none;">
<circle cx="137.66011" cy="62.57000" r="0.80000" /> 
<path style="fill:#000000; fill-opacity:1.00000; stroke:none;fill-rule:evenodd;"
d="M 136.32989,103.45250
134.32989,103.45250
134.32989,101.54750
136.32989,101.54750
Z" /> 
</g>
<g style="fill:none; 
stroke:#000000; stroke-width:1.90500; stroke-opacity:1; 
stroke-linecap:round; stroke-linejoin:round;">
<path d="M135.28239 99.96000
L135.37739 99.96000
" />
<path d="M135.28239 97.42000
L135.37739 97.42000
" />
<path style="fill:#000000; fill-opacity:1.00000; stroke:none;fill-rule:evenodd;"
d="M 158.15000,92.45000
158.24567,92.46903
158.32678,92.52322
158.38097,92.60433
158.40000,92.70000
158.40000,94.40000
158.38097,94.49567
158.32678,94.57678
158.24567,94.63097
158.15000,94.65000
156.45000,94.65000
156.35433,94.63097
156.27322,94.57678
156.21903,94.49567
156.20000,94.40000
156.20000,92.70000
156.21903,92.60433
156.27322,92.52322
156.35433,92.46903
156.45000,92.45000
Z" /> 
</g>
<g style="fill:#000000; fill-opacity:1.00000; stroke:none;">
<circle cx="157.30000" cy="103.71000" r="1.10000" /> 
<path style="fill:#000000; fill-opacity:1.00000; stroke:none;fill-rule:evenodd;"
d="M 134.35000,106.15000
134.36903,106.05433
134.42322,105.97322
134.50433,105.91903
134.60000,105.90000
136.30000,105.90000
136.39567,105.91903
136.47678,105.97322
136.53097,106.05433
136.55000,106.15000
136.55000,107.85000
136.53097,107.94567
136.47678,108.02678
136.39567,108.08097
136.30000,108.10000
134.60000,108.10000
134.50433,108.08097
134.42322,108.02678
134.36903,107.94567
134.35000,107.85000
Z" /> 
</g>
<g style="fill:#000000; fill-opacity:1.00000; stroke:none;">
<circle cx="145.61000" cy="107.00000" r="1.10000" /> 
<path style="fill:#000000; fill-opacity:1.00000; stroke:none;fill-rule:evenodd;"
d="M 154.50000,130.20000
154.48097,130.29567
154.42678,130.37678
154.34567,130.43097
154.25000,130.45000
153.15000,130.45000
153.05433,130.43097
152.97322,130.37678
152.91903,130.29567
152.90000,130.20000
152.90000,129.10000
152.91903,129.00433
152.97322,128.92322
153.05433,128.86903
153.15000,128.85000
154.25000,128.85000
154.34567,128.86903
154.42678,128.92322
154.48097,129.00433
154.50000,129.10000
Z" /> 
</g>
<g style="fill:#000000; fill-opacity:1.00000; stroke:none;">
<circle cx="151.70000" cy="129.65000" r="0.80000" /> 
</g>
<g style="fill:#000000; fill-opacity:1.00000; stroke:none;">
<circle cx="138.64500" cy="85.51000" r="0.72000" /> 
</g>
<g style="fill:#000000; fill-opacity:1.00000; stroke:none;">
<circle cx="138.64500" cy="88.05000" r="0.72000" /> 
</g>
<g style="fill:#000000; fill-opacity:1.00000; stroke:none;">
<circle cx="138.64500" cy="90.59000" r="0.72000" /> 
</g>
<g style="fill:#000000; fill-opacity:1.00000; stroke:none;">
<circle cx="133.81011" cy="56.42000" r="0.80000" /> 
</g>
<g style="fill:#000000; fill-opacity:1.00000; stroke:none;">
<circle cx="141.31011" cy="56.42000" r="0.80000" /> 
<path style="fill:#000000; fill-opacity:1.00000; stroke:none;fill-rule:evenodd;"
d="M 102.84364,117.89750
102.74797,117.87847
102.66686,117.82428
102.61267,117.74317
102.59364,117.64750
102.59364,115.44750
102.61267,115.35183
102.66686,115.27072
102.74797,115.21653
102.84364,115.19750
105.04364,115.19750
105.13931,115.21653
105.22041,115.27072
105.27461,115.35183
105.29364,115.44750
105.29364,117.64750
105.27461,117.74317
105.22041,117.82428
105.13931,117.87847
105.04363,117.89750
Z" /> 
</g>
<g style="fill:#000000; fill-opacity:1.00000; stroke:none;">
<circle cx="103.94364" cy="111.54750" r="1.35000" /> 
</g>
<g style="fill:#000000; fill-opacity:1.00000; stroke:none;">
<circle cx="103.94364" cy="106.54750" r="1.35000" /> 
<path style="fill:#000000; fill-opacity:1.00000; stroke:none;fill-rule:evenodd;"
d="M 148.65000,111.50000
148.74567,111.51903
148.82678,111.57322
148.88097,111.65433
148.90000,111.75000
148.90000,112.85000
148.88097,112.94567
148.82678,113.02678
148.74567,113.08097
148.65000,113.10000
147.55000,113.10000
147.45433,113.08097
147.37322,113.02678
147.31903,112.94567
147.30000,112.85000
147.30000,111.75000
147.31903,111.65433
147.37322,111.57322
147.45433,111.51903
147.55000,111.50000
Z" /> 
</g>
<g style="fill:#000000; fill-opacity:1.00000; stroke:none;">
<circle cx="148.10000" cy="114.30000" r="0.80000" /> 
<path style="fill:#000000; fill-opacity:1.00000; stroke:none;fill-rule:evenodd;"
d="M 111.70000,130.45000
111.71903,130.35433
111.77322,130.27322
111.85433,130.21903
111.95000,130.20000
113.85000,130.20000
113.94567,130.21903
114.02678,130.27322
114.08097,130.35433
114.10000,130.45000
114.10000,132.35000
114.08097,132.44567
114.02678,132.52678
113.94567,132.58097
113.85000,132.60000
111.95000,132.60000
111.85433,132.58097
111.77322,132.52678
111.71903,132.44567
111.70000,132.35000
Z" /> 
</g>
<g style="fill:#000000; fill-opacity:1.00000; stroke:none;">
<circle cx="120.40000" cy="131.40000" r="1.20000" /> 
</g>
<g style="fill:#000000; fill-opacity:1.00000; stroke:none;">
<circle cx="150.80000" cy="124.10000" r="0.72000" /> 
</g>
<g style="fill:#000000; fill-opacity:1.00000; stroke:none;">
<circle cx="150.80000" cy="121.56000" r="0.72000" /> 
</g>
<g style="fill:#000000; fill-opacity:1.00000; stroke:none;">
<circle cx="150.80000" cy="119.02000" r="0.72000" /> 
<path style="fill:#000000; fill-opacity:1.00000; stroke:none;fill-rule:evenodd;"
d="M 125.86011,80.65000
125.76444,80.63097
125.68333,80.57678
125.62914,80.49567
125.61011,80.40000
125.61011,78.70000
125.62914,78.60433
125.68333,78.52322
125.76444,78.46903
125.86011,78.45000
127.56011,78.45000
127.65578,78.46903
127.73689,78.52322
127.79108,78.60433
127.81011,78.70000
127.81011,80.40000
127.79108,80.49567
127.73689,80.57678
127.65578,80.63097
127.56011,80.65000
Z" /> 
</g>
<g style="fill:#000000; fill-opacity:1.00000; stroke:none;">
<circle cx="126.71011" cy="69.39000" r="1.10000" /> 
</g>
<g style="fill:#000000; fill-opacity:1.00000; stroke:none;">
<circle cx="139.36011" cy="69.99500" r="0.80000" /> 
</g>
<g style="fill:#000000; fill-opacity:1.00000; stroke:none;">
<circle cx="144.36011" cy="69.99500" r="0.80000" /> 
<path style="fill:#000000; fill-opacity:1.00000; stroke:none;fill-rule:evenodd;"
d="M 136.32989,77.01250
134.32989,77.01250
134.32989,75.10750
136.32989,75.10750
Z" /> 
</g>
<g style="fill:none; 
stroke:#000000; stroke-width:1.90500; stroke-opacity:1; 
stroke-linecap:round; stroke-linejoin:round;">
<path d="M135.28239 73.52000
L135.37739 73.52000
" />
<path d="M135.28239 70.98000
L135.37739 70.98000
" />
<path style="fill:#000000; fill-opacity:1.00000; stroke:none;fill-rule:evenodd;"
d="M 174.80000,100.45000
174.89567,100.46903
174.97678,100.52322
175.03097,100.60433
175.05000,100.70000
175.05000,103.00000
175.03097,103.09567
174.97678,103.17678
174.89567,103.23097
174.80000,103.25000
172.50000,103.25000
172.40433,103.23097
172.32322,103.17678
172.26903,103.09567
172.25000,103.00000
172.25000,100.70000
172.26903,100.60433
172.32322,100.52322
172.40433,100.46903
172.50000,100.45000
Z" /> 
</g>
<g style="fill:#000000; fill-opacity:1.00000; stroke:none;">
<circle cx="173.65000" cy="106.85000" r="1.40000" /> 
</g>
<g style="fill:#000000; fill-opacity:1.00000; stroke:none;">
<circle cx="173.65000" cy="111.85000" r="1.40000" /> 
</g>
<g style="fill:#000000; fill-opacity:1.00000; stroke:none;">
<circle cx="173.65000" cy="116.85000" r="1.40000" /> 
</g>
<g style="fill:#000000; fill-opacity:1.00000; stroke:none;">
<circle cx="140.05000" cy="131.75000" r="0.80000" /> 
</g>
<g style="fill:#000000; fill-opacity:1.00000; stroke:none;">
<circle cx="140.05000" cy="119.05000" r="0.80000" /> 
<path style="fill:#000000; fill-opacity:1.00000; stroke:none;fill-rule:evenodd;"
d="M 143.25000,91.05000
143.26903,90.95433
143.32322,90.87322
143.40433,90.81903
143.50000,90.80000
144.60000,90.80000
144.69567,90.81903
144.77678,90.87322
144.83097,90.95433
144.85000,91.05000
144.85000,92.15000
144.83097,92.24567
144.77678,92.32678
144.69567,92.38097
144.60000,92.40000
143.50000,92.40000
143.40433,92.38097
143.32322,92.32678
143.26903,92.24567
143.25000,92.15000
Z" /> 
</g>
<g style="fill:#000000; fill-opacity:1.00000; stroke:none;">
<circle cx="146.05000" cy="91.60000" r="0.80000" /> 
<path style="fill:#000000; fill-opacity:1.00000; stroke:none;fill-rule:evenodd;"
d="M 132.35000,112.50000
132.36903,112.40433
132.42322,112.32322
132.50433,112.26903
132.60000,112.25000
134.30000,112.25000
134.39567,112.26903
134.47678,112.32322
134.53097,112.40433
134.55000,112.50000
134.55000,114.20000
134.53097,114.29567
134.47678,114.37678
134.39567,114.43097
134.30000,114.45000
132.60000,114.45000
132.50433,114.43097
132.42322,114.37678
132.36903,114.29567
132.35000,114.20000
Z" /> 
</g>
<g style="fill:#000000; fill-opacity:1.00000; stroke:none;">
<circle cx="143.61000" cy="113.35000" r="1.10000" /> 
<path style="fill:#000000; fill-opacity:1.00000; stroke:none;fill-rule:evenodd;"
d="M 144.25000,131.50000
144.15433,131.48097
144.07322,131.42678
144.01903,131.34567
144.00000,131.25000
144.00000,129.55000
144.01903,129.45433
144.07322,129.37322
144.15433,129.31903
144.25000,129.30000
145.95000,129.30000
146.04567,129.31903
146.12678,129.37322
146.18097,129.45433
146.20000,129.55000
146.20000,131.25000
146.18097,131.34567
146.12678,131.42678
146.04567,131.48097
145.95000,131.50000
Z" /> 
</g>
<g style="fill:#000000; fill-opacity:1.00000; stroke:none;">
<circle cx="145.10000" cy="120.24000" r="1.10000" /> 
<path style="fill:#000000; fill-opacity:1.00000; stroke:none;fill-rule:evenodd;"
d="M 151.15000,94.30000
151.05433,94.28097
150.97322,94.22678
150.91903,94.14567
150.90000,94.05000
150.90000,92.95000
150.91903,92.85433
150.97322,92.77322
151.05433,92.71903
151.15000,92.70000
152.25000,92.70000
152.34567,92.71903
152.42678,92.77322
152.48097,92.85433
152.50000,92.95000
152.50000,94.05000
152.48097,94.14567
152.42678,94.22678
152.34567,94.28097
152.25000,94.30000
Z" /> 
</g>
<g style="fill:#000000; fill-opacity:1.00000; stroke:none;">
<circle cx="151.70000" cy="91.50000" r="0.80000" /> 
<path style="fill:#000000; fill-opacity:1.00000; stroke:none;fill-rule:evenodd;"
d="M 152.86000,97.95000
152.84097,98.04567
152.78678,98.12678
152.70567,98.18097
152.61000,98.20000
150.91000,98.20000
150.81433,98.18097
150.73322,98.12678
150.67903,98.04567
150.66000,97.95000
150.66000,96.25000
150.67903,96.15433
150.73322,96.07322
150.81433,96.01903
150.91000,96.00000
152.61000,96.00000
152.70567,96.01903
152.78678,96.07322
152.84097,96.15433
152.86000,96.25000
Z" /> 
</g>
<g style="fill:#000000; fill-opacity:1.00000; stroke:none;">
<circle cx="141.60000" cy="97.10000" r="1.10000" /> 
</g>
<g style="fill:#000000; fill-opacity:1.00000; stroke:none;">
<circle cx="124.15000" cy="116.50000" r="0.80000" /> 
</g>
<g style="fill:#000000; fill-opacity:1.00000; stroke:none;">
<circle cx="124.15000" cy="121.50000" r="0.80000" /> 
</g>
<g style="fill:#000000; fill-opacity:1.00000; stroke:none;">
<circle cx="141.81011" cy="78.07000" r="0.75000" /> 
</g>
<g style="fill:#000000; fill-opacity:1.00000; stroke:none;">
<circle cx="141.81011" cy="73.07000" r="0.75000" /> 
</g>
<g style="fill:#000000; fill-opacity:1.00000; stroke:none;">
<circle cx="132.65000" cy="87.90000" r="1.25000" /> 
</g>
<g style="fill:#000000; fill-opacity:1.00000; stroke:none;">
<circle cx="125.15000" cy="87.90000" r="1.25000" /> 
</g>
<g style="fill:#000000; fill-opacity:1.00000; stroke:none;">
<circle cx="132.15000" cy="132.90000" r="1.25000" /> 
<path style="fill:#000000; fill-opacity:1.00000; stroke:none;fill-rule:evenodd;"
d="M 123.92989,55.77750
125.92989,55.77750
125.92989,57.68250
123.92989,57.68250
Z" /> 
</g>
<g style="fill:none; 
stroke:#000000; stroke-width:1.90500; stroke-opacity:1; 
stroke-linecap:round; stroke-linejoin:round;">
<path d="M124.97739 59.27000
L124.88239 59.27000
" />
<path d="M124.97739 61.81000
L124.88239 61.81000
" />
</g>
<g style="fill:#000000; fill-opacity:1.00000; stroke:none;">
<circle cx="178.90000" cy="137.60000" r="3.50000" /> 
</g>
<g style="fill:#000000; fill-opacity:1.00000; stroke:none;">
<circle cx="179.45000" cy="53.55000" r="3.50000" /> 
</g>
<g style="fill:#000000; fill-opacity:1.00000; stroke:none;">
<circle cx="102.45000" cy="53.55000" r="3.50000" /> 
</g>
<g style="fill:#000000; fill-opacity:1.00000; stroke:none;">
<circle cx="101.90000" cy="137.60000" r="3.50000" /> 
</g>
<g style="fill:#FFFFFF; fill-opacity:1.00000; stroke:none;">
<circle cx="178.90000" cy="137.60000" r="2.00000" /> 
</g>
<g style="fill:#FFFFFF; fill-opacity:1.00000; stroke:none;">
<circle cx="179.45000" cy="53.55000" r="2.00000" /> 
</g>
<g style="fill:#FFFFFF; fill-opacity:1.00000; stroke:none;">
<circle cx="102.45000" cy="53.55000" r="2.00000" /> 
</g>
<g style="fill:#FFFFFF; fill-opacity:1.00000; stroke:none;">
<circle cx="101.90000" cy="137.60000" r="2.00000" /> 
</g>
<g style="fill:#FFFFFF; fill-opacity:1.00000; stroke:none;">
<circle cx="117.71011" cy="53.79000" r="0.55000" /> 
</g>
<g style="fill:#FFFFFF; fill-opacity:1.00000; stroke:none;">
<circle cx="117.71011" cy="63.95000" r="0.55000" /> 
</g>
<g style="fill:#FFFFFF; fill-opacity:1.00000; stroke:none;">
<circle cx="135.32989" cy="124.06000" r="0.55000" /> 
</g>
<g style="fill:#FFFFFF; fill-opacity:1.00000; stroke:none;">
<circle cx="135.32989" cy="121.52000" r="0.55000" /> 
</g>
<g style="fill:#FFFFFF; fill-opacity:1.00000; stroke:none;">
<circle cx="135.32989" cy="118.98000" r="0.55000" /> 
</g>
<g style="fill:#FFFFFF; fill-opacity:1.00000; stroke:none;">
<circle cx="158.45000" cy="126.00000" r="0.40000" /> 
</g>
<g style="fill:#FFFFFF; fill-opacity:1.00000; stroke:none;">
<circle cx="171.15000" cy="126.00000" r="0.40000" /> 
</g>
<g style="fill:#FFFFFF; fill-opacity:1.00000; stroke:none;">
<circle cx="163.85000" cy="115.52500" r="0.45000" /> 
</g>
<g style="fill:#FFFFFF; fill-opacity:1.00000; stroke:none;">
<circle cx="163.85000" cy="118.06500" r="0.45000" /> 
</g>
<g style="fill:#FFFFFF; fill-opacity:1.00000; stroke:none;">
<circle cx="158.30000" cy="112.30000" r="0.55000" /> 
</g>
<g style="fill:#FFFFFF; fill-opacity:1.00000; stroke:none;">
<circle cx="158.30000" cy="122.46000" r="0.55000" /> 
</g>
<g style="fill:#FFFFFF; fill-opacity:1.00000; stroke:none;">
<circle cx="164.85000" cy="105.37500" r="0.45000" /> 
</g>
<g style="fill:#FFFFFF; fill-opacity:1.00000; stroke:none;">
<circle cx="164.85000" cy="102.83500" r="0.45000" /> 
</g>
<g style="fill:#FFFFFF; fill-opacity:1.00000; stroke:none;">
<circle cx="164.80000" cy="98.95000" r="0.40000" /> 
</g>
<g style="fill:#FFFFFF; fill-opacity:1.00000; stroke:none;">
<circle cx="164.80000" cy="86.25000" r="0.40000" /> 
</g>
<g style="fill:#FFFFFF; fill-opacity:1.00000; stroke:none;">
<circle cx="115.32989" cy="110.27000" r="0.50000" /> 
</g>
<g style="fill:#FFFFFF; fill-opacity:1.00000; stroke:none;">
<circle cx="115.32989" cy="115.27000" r="0.50000" /> 
</g>
<g style="fill:#FFFFFF; fill-opacity:1.00000; stroke:none;">
<circle cx="120.32989" cy="115.27000" r="0.50000" /> 
</g>
<g style="fill:#FFFFFF; fill-opacity:1.00000; stroke:none;">
<circle cx="120.32989" cy="110.27000" r="0.50000" /> 
</g>
<g style="fill:#FFFFFF; fill-opacity:1.00000; stroke:none;">
<circle cx="109.05000" cy="93.25000" r="0.60000" /> 
</g>
<g style="fill:#FFFFFF; fill-opacity:1.00000; stroke:none;">
<circle cx="116.55000" cy="93.25000" r="0.60000" /> 
</g>
<g style="fill:#FFFFFF; fill-opacity:1.00000; stroke:none;">
<circle cx="154.30000" cy="102.10000" r="0.40000" /> 
</g>
<g style="fill:#FFFFFF; fill-opacity:1.00000; stroke:none;">
<circle cx="141.60000" cy="102.10000" r="0.40000" /> 
</g>
<g style="fill:#FFFFFF; fill-opacity:1.00000; stroke:none;">
<circle cx="125.60000" cy="97.10000" r="0.40000" /> 
</g>
<g style="fill:#FFFFFF; fill-opacity:1.00000; stroke:none;">
<circle cx="125.60000" cy="102.10000" r="0.40000" /> 
</g>
<g style="fill:#FFFFFF; fill-opacity:1.00000; stroke:none;">
<circle cx="137.66011" cy="64.57000" r="0.40000" /> 
</g>
<g style="fill:#FFFFFF; fill-opacity:1.00000; stroke:none;">
<circle cx="137.66011" cy="62.57000" r="0.40000" /> 
</g>
<g style="fill:#FFFFFF; fill-opacity:1.00000; stroke:none;">
<circle cx="135.32989" cy="102.50000" r="0.55000" /> 
</g>
<g style="fill:#FFFFFF; fill-opacity:1.00000; stroke:none;">
<circle cx="135.32989" cy="99.96000" r="0.55000" /> 
</g>
<g style="fill:#FFFFFF; fill-opacity:1.00000; stroke:none;">
<circle cx="135.32989" cy="97.42000" r="0.55000" /> 
</g>
<g style="fill:#FFFFFF; fill-opacity:1.00000; stroke:none;">
<circle cx="157.30000" cy="93.55000" r="0.55000" /> 
</g>
<g style="fill:#FFFFFF; fill-opacity:1.00000; stroke:none;">
<circle cx="157.30000" cy="103.71000" r="0.55000" /> 
</g>
<g style="fill:#FFFFFF; fill-opacity:1.00000; stroke:none;">
<circle cx="135.45000" cy="107.00000" r="0.55000" /> 
</g>
<g style="fill:#FFFFFF; fill-opacity:1.00000; stroke:none;">
<circle cx="145.61000" cy="107.00000" r="0.55000" /> 
</g>
<g style="fill:#FFFFFF; fill-opacity:1.00000; stroke:none;">
<circle cx="153.70000" cy="129.65000" r="0.40000" /> 
</g>
<g style="fill:#FFFFFF; fill-opacity:1.00000; stroke:none;">
<circle cx="151.70000" cy="129.65000" r="0.40000" /> 
</g>
<g style="fill:#FFFFFF; fill-opacity:1.00000; stroke:none;">
<circle cx="138.64500" cy="85.51000" r="0.40000" /> 
</g>
<g style="fill:#FFFFFF; fill-opacity:1.00000; stroke:none;">
<circle cx="138.64500" cy="88.05000" r="0.40000" /> 
</g>
<g style="fill:#FFFFFF; fill-opacity:1.00000; stroke:none;">
<circle cx="138.64500" cy="90.59000" r="0.40000" /> 
</g>
<g style="fill:#FFFFFF; fill-opacity:1.00000; stroke:none;">
<circle cx="133.81011" cy="56.42000" r="0.40000" /> 
</g>
<g style="fill:#FFFFFF; fill-opacity:1.00000; stroke:none;">
<circle cx="141.31011" cy="56.42000" r="0.40000" /> 
</g>
<g style="fill:#FFFFFF; fill-opacity:1.00000; stroke:none;">
<circle cx="103.94364" cy="116.54750" r="0.85000" /> 
</g>
<g style="fill:#FFFFFF; fill-opacity:1.00000; stroke:none;">
<circle cx="103.94364" cy="111.54750" r="0.85000" /> 
</g>
<g style="fill:#FFFFFF; fill-opacity:1.00000; stroke:none;">
<circle cx="103.94364" cy="106.54750" r="0.85000" /> 
</g>
<g style="fill:#FFFFFF; fill-opacity:1.00000; stroke:none;">
<circle cx="148.10000" cy="112.30000" r="0.40000" /> 
</g>
<g style="fill:#FFFFFF; fill-opacity:1.00000; stroke:none;">
<circle cx="148.10000" cy="114.30000" r="0.40000" /> 
</g>
<g style="fill:#FFFFFF; fill-opacity:1.00000; stroke:none;">
<circle cx="112.90000" cy="131.40000" r="0.60000" /> 
</g>
<g style="fill:#FFFFFF; fill-opacity:1.00000; stroke:none;">
<circle cx="120.40000" cy="131.40000" r="0.60000" /> 
</g>
<g style="fill:#FFFFFF; fill-opacity:1.00000; stroke:none;">
<circle cx="150.80000" cy="124.10000" r="0.40000" /> 
</g>
<g style="fill:#FFFFFF; fill-opacity:1.00000; stroke:none;">
<circle cx="150.80000" cy="121.56000" r="0.40000" /> 
</g>
<g style="fill:#FFFFFF; fill-opacity:1.00000; stroke:none;">
<circle cx="150.80000" cy="119.02000" r="0.40000" /> 
</g>
<g style="fill:#FFFFFF; fill-opacity:1.00000; stroke:none;">
<circle cx="126.71011" cy="79.55000" r="0.55000" /> 
</g>
<g style="fill:#FFFFFF; fill-opacity:1.00000; stroke:none;">
<circle cx="126.71011" cy="69.39000" r="0.55000" /> 
</g>
<g style="fill:#FFFFFF; fill-opacity:1.00000; stroke:none;">
<circle cx="139.36011" cy="69.99500" r="0.40000" /> 
</g>
<g style="fill:#FFFFFF; fill-opacity:1.00000; stroke:none;">
<circle cx="144.36011" cy="69.99500" r="0.40000" /> 
</g>
<g style="fill:#FFFFFF; fill-opacity:1.00000; stroke:none;">
<circle cx="135.32989" cy="76.06000" r="0.55000" /> 
</g>
<g style="fill:#FFFFFF; fill-opacity:1.00000; stroke:none;">
<circle cx="135.32989" cy="73.52000" r="0.55000" /> 
</g>
<g style="fill:#FFFFFF; fill-opacity:1.00000; stroke:none;">
<circle cx="135.32989" cy="70.98000" r="0.55000" /> 
</g>
<g style="fill:#FFFFFF; fill-opacity:1.00000; stroke:none;">
<circle cx="173.65000" cy="101.85000" r="0.65000" /> 
</g>
<g style="fill:#FFFFFF; fill-opacity:1.00000; stroke:none;">
<circle cx="173.65000" cy="106.85000" r="0.65000" /> 
</g>
<g style="fill:#FFFFFF; fill-opacity:1.00000; stroke:none;">
<circle cx="173.65000" cy="111.85000" r="0.65000" /> 
</g>
<g style="fill:#FFFFFF; fill-opacity:1.00000; stroke:none;">
<circle cx="173.65000" cy="116.85000" r="0.65000" /> 
</g>
<g style="fill:#FFFFFF; fill-opacity:1.00000; stroke:none;">
<circle cx="140.05000" cy="131.75000" r="0.40000" /> 
</g>
<g style="fill:#FFFFFF; fill-opacity:1.00000; stroke:none;">
<circle cx="140.05000" cy="119.05000" r="0.40000" /> 
</g>
<g style="fill:#FFFFFF; fill-opacity:1.00000; stroke:none;">
<circle cx="144.05000" cy="91.60000" r="0.40000" /> 
</g>
<g style="fill:#FFFFFF; fill-opacity:1.00000; stroke:none;">
<circle cx="146.05000" cy="91.60000" r="0.40000" /> 
</g>
<g style="fill:#FFFFFF; fill-opacity:1.00000; stroke:none;">
<circle cx="133.45000" cy="113.35000" r="0.55000" /> 
</g>
<g style="fill:#FFFFFF; fill-opacity:1.00000; stroke:none;">
<circle cx="143.61000" cy="113.35000" r="0.55000" /> 
</g>
<g style="fill:#FFFFFF; fill-opacity:1.00000; stroke:none;">
<circle cx="145.10000" cy="130.40000" r="0.55000" /> 
</g>
<g style="fill:#FFFFFF; fill-opacity:1.00000; stroke:none;">
<circle cx="145.10000" cy="120.24000" r="0.55000" /> 
</g>
<g style="fill:#FFFFFF; fill-opacity:1.00000; stroke:none;">
<circle cx="151.70000" cy="93.50000" r="0.40000" /> 
</g>
<g style="fill:#FFFFFF; fill-opacity:1.00000; stroke:none;">
<circle cx="151.70000" cy="91.50000" r="0.40000" /> 
</g>
<g style="fill:#FFFFFF; fill-opacity:1.00000; stroke:none;">
<circle cx="151.76000" cy="97.10000" r="0.55000" /> 
</g>
<g style="fill:#FFFFFF; fill-opacity:1.00000; stroke:none;">
<circle cx="141.60000" cy="97.10000" r="0.55000" /> 
</g>
<g style="fill:#FFFFFF; fill-opacity:1.00000; stroke:none;">
<circle cx="124.15000" cy="116.50000" r="0.40000" /> 
</g>
<g style="fill:#FFFFFF; fill-opacity:1.00000; stroke:none;">
<circle cx="124.15000" cy="121.50000" r="0.40000" /> 
</g>
<g style="fill:#FFFFFF; fill-opacity:1.00000; stroke:none;">
<circle cx="141.81011" cy="78.07000" r="0.37500" /> 
</g>
<g style="fill:#FFFFFF; fill-opacity:1.00000; stroke:none;">
<circle cx="141.81011" cy="73.07000" r="0.37500" /> 
</g>
<g style="fill:#FFFFFF; fill-opacity:1.00000; stroke:none;">
<circle cx="132.65000" cy="87.90000" r="0.50000" /> 
</g>
<g style="fill:#FFFFFF; fill-opacity:1.00000; stroke:none;">
<circle cx="125.15000" cy="87.90000" r="0.50000" /> 
</g>
<g style="fill:#FFFFFF; fill-opacity:1.00000; stroke:none;">
<circle cx="132.15000" cy="132.90000" r="0.50000" /> 
</g>
<g style="fill:#FFFFFF; fill-opacity:1.00000; stroke:none;">
<circle cx="124.92989" cy="56.73000" r="0.55000" /> 
</g>
<g style="fill:#FFFFFF; fill-opacity:1.00000; stroke:none;">
<circle cx="124.92989" cy="59.27000" r="0.55000" /> 
</g>
<g style="fill:#FFFFFF; fill-opacity:1.00000; stroke:none;">
<circle cx="124.92989" cy="61.81000" r="0.55000" /> 
</g> 
</svg>
